<svg xmlns="http://www.w3.org/2000/svg" height="24px" viewBox="0 -960 960 960" width="24px" fill="#000000"><path d="m634-440-81-80h69l110-200H353l-80-80h525q23 0 35.5 19.5t.5 42.5L692-482q-11 20-28 31t-30 11ZM280-80q-33 0-56.5-23.5T200-160q0-33 23.5-56.5T280-240q33 0 56.5 23.5T360-160q0 33-23.5 56.5T280-80Zm540 52L566-280H304q-44 0-67-37.5t-3-78.5l42-86-72-162L28-820l56-56L876-84l-56 56ZM486-360l-80-80h-62l-40 80h182Zm136-160h-69 69Zm1.5 416.5Q600-127 600-160t23.5-56.5Q647-240 680-240t56.5 23.5Q760-193 760-160t-23.5 56.5Q713-80 680-80t-56.5-23.5Z"/></svg>