<svg xmlns="http://www.w3.org/2000/svg" viewBox="0 0 100 100">
  <title>PizzaMarket</title>
  <path
    fill="#f4a261"
    stroke="#fefefe"
    stroke-width="1.75"
    stroke-linejoin="round"
    stroke-linecap="round"
    d="M 50 50 L 34.44 18.09 Q 31.59 12.25 37.63 9.86 A 42 42 0 0 1 62.37 9.86 Q 68.41 12.25 65.56 18.09 Z"
  />
  <path
    fill="#f4a261"
    stroke="#fefefe"
    stroke-width="1.75"
    stroke-linejoin="round"
    stroke-linecap="round"
    d="M 50 50 L 69.85 20.57 Q 73.49 15.18 78.57 19.22 A 42 42 0 0 1 90.95 40.65 Q 91.9 47.07 85.41 47.52 Z"
  />
  <path
    fill="none"
    stroke="#fefefe"
    stroke-width="1.75"
    stroke-linejoin="round"
    stroke-linecap="round"
    d="M 50 50 L 85.41 52.48 Q 91.9 52.93 90.95 59.35 A 42 42 0 0 1 78.57 80.78 Q 73.49 84.82 69.85 79.43 Z"
  />
  <path
    fill="#f4a261"
    stroke="#fefefe"
    stroke-width="1.75"
    stroke-linejoin="round"
    stroke-linecap="round"
    d="M 50 50 L 65.56 81.91 Q 68.41 87.75 62.37 90.14 A 42 42 0 0 1 37.63 90.14 Q 31.59 87.75 34.44 81.91 Z"
  />
  <path
    fill="#f4a261"
    stroke="#fefefe"
    stroke-width="1.75"
    stroke-linejoin="round"
    stroke-linecap="round"
    d="M 50 50 L 30.15 79.43 Q 26.51 84.82 21.43 80.78 A 42 42 0 0 1 9.05 59.35 Q 8.1 52.93 14.59 52.48 Z"
  />
  <path
    fill="#f4a261"
    stroke="#fefefe"
    stroke-width="1.75"
    stroke-linejoin="round"
    stroke-linecap="round"
    d="M 50 50 L 14.59 47.52 Q 8.1 47.07 9.05 40.65 A 42 42 0 0 1 21.43 19.22 Q 26.51 15.18 30.15 20.57 Z"
  />
</svg>
